<?xml version="1.0" standalone="no"?>
<!DOCTYPE svg PUBLIC "-//W3C//DTD SVG 20010904//EN"
 "http://www.w3.org/TR/2001/REC-SVG-20010904/DTD/svg10.dtd">
<svg version="1.0" xmlns="http://www.w3.org/2000/svg"
 width="500.000000pt" height="500.000000pt" viewBox="0 0 500.000000 500.000000"
 preserveAspectRatio="xMidYMid meet">

<g transform="translate(0.000000,500.000000) scale(0.100000,-0.100000)"
fill="#000000" stroke="none">
<path d="M1962 4094 c-40 -27 -29 -68 34 -134 l56 -58 64 60 c69 66 79 93 44
128 -25 25 -51 25 -81 1 -23 -19 -24 -19 -48 0 -29 23 -40 24 -69 3z"/>
<path d="M2869 4089 c-31 -31 -17 -65 49 -126 l57 -51 58 56 c48 48 57 62 55
87 -2 20 -12 34 -30 44 -25 14 -29 14 -56 -6 -30 -22 -30 -22 -47 -2 -23 25
-60 24 -86 -2z"/>
<path d="M2432 4048 c-25 -25 -13 -63 33 -108 l45 -44 44 43 c49 48 57 66 45
99 -10 26 -44 29 -69 7 -15 -14 -18 -14 -30 0 -15 18 -51 20 -68 3z"/>
<path d="M1447 3849 c-63 -55 -73 -77 -81 -188 l-7 -94 61 53 c34 29 68 66 76
82 22 43 28 117 13 155 l-14 33 -48 -41z"/>
<path d="M3510 3850 c-20 -76 12 -166 77 -216 21 -16 49 -40 62 -54 17 -18 22
-20 18 -7 -4 10 -9 55 -13 100 -4 45 -13 96 -21 114 -13 28 -91 103 -107 103
-3 0 -10 -18 -16 -40z"/>
<path d="M2430 3730 c-36 -36 -26 -68 46 -141 l66 -66 55 55 c70 71 85 94 77
118 -20 54 -64 69 -105 35 -23 -19 -24 -19 -48 0 -31 25 -66 24 -91 -1z"/>
<path d="M1620 3683 c-25 -7 -68 -21 -97 -30 -36 -11 -66 -30 -99 -64 -26 -27
-46 -50 -43 -53 10 -9 164 26 194 44 33 21 76 71 88 103 3 9 5 16 4 16 -1 -1
-22 -8 -47 -16z"/>
<path d="M3360 3693 c0 -16 35 -65 64 -90 37 -34 74 -48 151 -58 28 -4 59 -12
70 -18 18 -9 19 -9 6 9 -57 74 -142 133 -196 134 -11 1 -37 7 -57 14 -21 8
-38 12 -38 9z"/>
<path d="M1264 3615 c-3 -14 -3 -56 2 -93 6 -57 9 -62 15 -37 10 46 10 155 -1
155 -5 0 -12 -11 -16 -25z"/>
<path d="M3739 3609 c-2 -19 0 -63 5 -99 l10 -65 7 45 c12 71 10 115 -5 135
-12 17 -14 16 -17 -16z"/>
<path d="M1190 3590 c-6 -12 -13 -74 -15 -138 -3 -64 -9 -139 -14 -166 l-9
-48 54 53 c30 29 54 60 54 69 -1 8 -7 3 -16 -12 -8 -16 -16 -28 -18 -28 -1 0
2 22 8 49 8 40 6 61 -9 112 -11 34 -19 77 -19 95 0 40 -2 41 -16 14z"/>
<path d="M3820 3578 c0 -20 -7 -63 -15 -95 -10 -36 -14 -77 -10 -108 5 -48 5
-49 -9 -25 -9 14 -15 20 -16 13 0 -12 66 -99 92 -120 13 -11 13 -5 1 50 -7 34
-13 109 -13 167 -1 72 -5 113 -15 130 l-14 25 -1 -37z"/>
<path d="M2853 3534 c-3 -9 7 -28 23 -45 l28 -29 29 29 c41 40 31 59 -28 59
-32 0 -48 -4 -52 -14z"/>
<path d="M2100 3525 c-8 -9 -4 -21 16 -44 14 -17 30 -31 34 -31 16 0 50 58 44
73 -7 19 -79 21 -94 2z"/>
<path d="M1411 3479 c-28 -11 -77 -51 -104 -86 l-20 -25 44 28 c45 29 66 32
196 23 39 -3 46 2 37 25 -15 38 -97 57 -153 35z"/>
<path d="M3490 3468 c-19 -13 -35 -28 -37 -35 -6 -16 49 -26 81 -13 48 18 98
11 155 -20 l55 -30 -25 27 c-84 93 -160 117 -229 71z"/>
<path d="M1329 3332 c-24 -16 -60 -49 -81 -73 l-36 -45 111 38 c118 41 190 84
166 99 -8 5 -37 9 -65 9 -38 0 -61 -7 -95 -28z"/>
<path d="M3535 3350 c-10 -17 75 -69 149 -91 39 -12 81 -25 94 -30 19 -7 21
-6 15 6 -19 33 -89 99 -120 111 -37 16 -129 19 -138 4z"/>
<path d="M1040 3314 c0 -4 14 -32 32 -63 29 -51 32 -64 33 -143 0 -49 -3 -88
-7 -88 -4 0 -8 -5 -8 -10 0 -6 12 -1 28 10 15 11 58 29 97 39 55 16 77 28 104
57 l35 38 -34 9 c-69 18 -143 -21 -182 -96 -11 -22 -22 -36 -25 -34 -3 3 0 35
6 70 6 35 8 78 5 94 -5 27 -84 137 -84 117z"/>
<path d="M3952 3282 c-48 -55 -55 -93 -37 -198 9 -49 21 -93 27 -99 8 -7 9 -4
3 10 -4 11 -9 57 -12 102 -5 76 -4 86 26 149 17 37 30 68 28 70 -1 1 -17 -14
-35 -34z"/>
<path d="M2705 3246 c-110 -29 -174 -64 -240 -131 -95 -95 -132 -212 -121
-382 l7 -103 -33 -20 c-18 -11 -36 -20 -40 -20 -4 0 -24 26 -45 58 -37 56
-138 162 -154 162 -5 0 -33 15 -62 34 -112 72 -255 118 -363 118 -93 0 -142
-22 -168 -76 -17 -36 -18 -40 -3 -72 26 -54 54 -66 159 -68 89 -1 97 -3 191
-49 71 -35 115 -64 155 -104 l57 -56 -50 -8 c-47 -8 -52 -6 -100 29 -66 50
-126 84 -133 77 -16 -15 -76 -240 -87 -321 -6 -45 -10 -53 -46 -75 -48 -29
-93 -84 -121 -147 -29 -63 -36 -190 -15 -261 8 -28 11 -51 7 -51 -5 0 -22 11
-38 25 -27 23 -31 23 -43 8 -9 -10 -14 -42 -14 -89 0 -64 3 -77 30 -115 39
-55 89 -89 131 -89 28 0 34 -4 44 -36 17 -49 76 -113 126 -135 40 -18 174 -51
174 -42 0 19 -61 115 -98 156 -52 56 -102 82 -177 92 -90 13 -145 59 -145 119
l1 31 20 -28 c28 -37 45 -45 133 -61 41 -8 88 -22 105 -31 17 -8 31 -13 31
-10 0 3 -38 43 -85 89 -92 90 -118 136 -108 188 7 41 30 88 43 88 23 0 60 -25
56 -37 -3 -7 1 -13 10 -13 31 0 240 -114 273 -149 37 -39 37 -39 1 37 -14 28
-31 52 -38 52 -36 0 -160 70 -190 106 -34 41 -41 59 -18 51 10 -4 8 5 -6 34
-30 63 -40 136 -28 215 5 38 10 74 10 79 0 6 6 -1 13 -15 7 -14 23 -26 35 -28
26 -4 27 0 7 38 -16 31 -10 41 9 15 8 -12 11 17 11 114 0 71 3 132 7 136 4 4
19 -2 35 -12 15 -11 54 -34 86 -52 56 -31 61 -32 140 -25 49 3 106 2 142 -5
58 -11 61 -11 75 11 22 34 142 148 156 148 2 0 0 -7 -3 -17 -4 -11 -3 -14 5
-9 9 5 12 -25 12 -118 l0 -126 33 -43 c35 -47 83 -177 74 -201 -3 -8 -16 -16
-29 -19 l-23 -4 23 -2 c19 -1 22 -7 22 -41 0 -44 -3 -46 -40 -25 -38 22 -49
18 -12 -5 34 -21 44 -44 15 -33 -17 6 -17 5 -1 -13 15 -18 15 -22 1 -51 -9
-19 -27 -36 -44 -42 -17 -6 -43 -19 -59 -31 -23 -16 -48 -21 -123 -24 -100 -4
-132 -14 -142 -45 -3 -11 -21 -31 -40 -45 -18 -14 -39 -42 -45 -61 -6 -19 -14
-35 -17 -35 -3 0 -23 14 -44 31 -21 17 -39 26 -39 20 0 -7 12 -40 26 -74 15
-34 31 -81 35 -105 8 -40 6 -45 -19 -67 -25 -21 -27 -29 -26 -92 0 -37 4 -84
8 -103 l8 -35 -42 -2 c-27 -1 -83 -21 -171 -64 -87 -41 -147 -64 -180 -67
l-49 -5 32 -24 c146 -109 354 -154 463 -99 l48 25 39 -25 c22 -14 61 -31 87
-37 42 -10 51 -16 67 -51 16 -33 34 -48 94 -81 41 -22 87 -48 102 -58 27 -18
28 -18 55 0 15 11 53 32 85 46 57 28 84 57 104 112 10 27 17 31 62 36 102 13
158 73 150 160 l-5 49 36 7 c20 4 86 7 146 8 109 0 111 0 207 -45 54 -25 98
-48 98 -52 0 -14 -74 -8 -158 12 -100 24 -192 26 -255 4 -45 -15 -47 -18 -47
-54 0 -34 4 -40 38 -56 53 -26 174 -31 248 -9 66 19 178 72 225 107 l31 23
-53 7 c-33 4 -94 27 -168 63 -64 32 -141 62 -171 68 l-56 11 18 35 c20 40 23
102 7 134 -6 12 -23 34 -37 49 -22 24 -23 31 -14 55 6 15 13 39 15 53 3 14 5
6 6 -20 1 -37 8 -52 38 -84 l37 -40 15 25 c31 47 106 121 142 140 20 10 68 23
105 29 99 15 132 28 148 57 18 35 27 16 12 -27 -14 -45 -62 -76 -129 -85 -61
-8 -132 -37 -166 -68 -24 -22 -103 -139 -114 -168 -5 -15 1 -15 63 -3 126 24
217 91 235 175 6 26 11 29 44 29 47 0 95 31 135 88 42 60 49 159 15 228 -30
63 -73 110 -136 151 -29 18 -84 64 -123 101 -75 72 -85 99 -55 152 8 14 14 37
15 51 0 14 16 56 36 93 20 38 47 97 60 132 23 61 24 71 16 193 l-8 128 -49 69
c-27 38 -71 91 -98 118 -27 27 -55 67 -63 90 -19 54 -65 99 -128 127 -79 35
-250 37 -371 5z m351 -43 c39 -21 104 -84 104 -102 0 -5 -18 -11 -39 -15 -27
-4 -48 -16 -70 -41 -17 -20 -31 -39 -31 -43 0 -20 -101 -108 -150 -130 -44
-21 -76 -27 -165 -32 -112 -6 -166 -22 -178 -55 -6 -13 -4 -13 16 0 17 11 60
16 153 19 71 2 145 9 164 15 67 21 128 69 184 145 31 41 65 78 77 81 38 12 91
-23 154 -102 101 -127 99 -124 102 -242 3 -119 -4 -183 -17 -161 -6 10 -10 7
-14 -13 -19 -87 -17 -86 -32 -27 -14 54 -127 296 -157 335 -9 11 15 -41 51
-115 l67 -135 0 -140 c0 -126 -2 -144 -22 -182 -13 -24 -19 -43 -14 -43 10 0
-18 -79 -49 -140 -10 -20 -30 -45 -45 -54 -25 -16 -26 -16 -35 6 -8 22 -9 22
-9 2 -1 -26 -42 -82 -78 -105 -65 -43 -163 -30 -210 29 -19 22 -23 24 -23 9 0
-19 -8 -18 -65 3 -49 19 -125 129 -125 181 0 13 -6 30 -13 38 -8 9 -35 62 -62
118 l-48 102 17 65 c19 78 20 89 2 57 -12 -21 -13 -16 -19 55 -7 108 -11 116
-53 108 l-34 -6 0 106 c0 135 19 190 96 274 99 110 245 164 429 159 79 -2 109
-8 141 -24z m-1239 -317 c175 -60 309 -154 384 -269 21 -34 39 -64 39 -67 0
-4 -8 -14 -17 -22 -15 -13 -27 -14 -76 -5 -37 8 -59 17 -62 28 -3 9 -34 44
-70 78 -47 46 -90 74 -162 109 -91 43 -104 47 -188 50 -96 3 -131 14 -141 44
-7 23 19 66 49 79 36 15 166 2 244 -25z m1408 -922 c-11 -64 -52 -142 -101
-196 -27 -29 -42 -47 -34 -40 35 30 27 7 -14 -46 -25 -32 -46 -65 -46 -73 -1
-8 -10 3 -20 23 -30 57 -82 91 -146 96 -30 2 -54 8 -54 13 0 5 -17 28 -37 51
-28 31 -31 38 -13 25 14 -9 44 -28 67 -42 l42 -26 78 49 c43 27 106 63 140 82
35 18 80 52 100 75 21 24 40 44 42 44 2 1 0 -15 -4 -35z m-587 -149 c45 -15
93 -36 107 -47 30 -23 34 -72 8 -87 -10 -6 -13 -11 -8 -11 21 -1 58 -42 70
-77 9 -26 21 -40 37 -43 38 -9 59 -64 56 -148 -3 -61 -1 -70 10 -55 20 27 34
93 28 127 -9 48 -43 95 -81 113 -44 21 -81 79 -64 99 27 32 110 3 146 -53 11
-16 21 -56 25 -103 3 -41 12 -98 19 -127 19 -76 2 -123 -70 -195 -37 -37 -66
-58 -80 -58 -18 0 -22 4 -16 18 22 58 11 113 -39 186 -25 37 -26 37 -26 13 0
-42 -38 -76 -105 -93 -33 -9 -66 -21 -73 -26 -20 -17 -27 -1 -27 66 0 51 5 70
28 104 15 23 24 42 20 42 -22 0 -77 -45 -86 -70 -13 -34 -19 -36 -37 -15 -7 8
-38 22 -69 31 -99 29 -117 70 -58 129 45 45 72 50 188 35 l99 -12 0 -34 0 -34
50 28 c49 26 50 27 80 10 31 -18 31 -18 28 4 -4 33 -52 53 -93 41 -27 -9 -35
-7 -49 8 -10 13 -29 19 -56 19 -36 0 -40 2 -40 25 0 33 44 75 79 75 41 1 -116
61 -174 67 -45 4 -54 2 -95 -29 -37 -27 -54 -33 -95 -33 -42 0 -58 -6 -92 -33
-102 -80 -113 -230 -25 -325 23 -25 27 -36 27 -97 l0 -70 -37 0 c-73 0 -150
96 -150 188 0 50 25 82 63 82 18 0 18 2 4 36 -23 56 -19 86 18 130 19 21 48
67 66 101 29 53 40 64 82 83 51 21 75 20 112 -5 16 -12 22 -9 46 17 47 52 100
53 249 3z m-121 -96 c21 -8 24 -14 19 -37 -13 -52 -40 -76 -107 -94 -35 -10
-70 -15 -76 -13 -19 6 -16 81 3 111 34 51 86 62 161 33z m-231 -122 c12 -33
11 -43 -1 -67 -38 -74 -5 -132 90 -156 79 -21 94 -30 110 -66 16 -38 9 -68
-16 -68 -29 0 -23 -16 11 -30 42 -18 55 -43 35 -73 -8 -13 -27 -29 -41 -35
-31 -15 -81 -16 -89 -2 -3 6 -19 10 -35 10 -49 0 -108 29 -130 65 -41 66 -15
125 54 125 28 0 29 1 11 20 -10 11 -25 43 -34 71 l-17 52 -13 -57 c-7 -31 -16
-56 -21 -56 -17 0 -54 96 -58 151 -7 88 41 163 100 157 26 -2 33 -9 44 -41z
m514 -336 c31 -59 -18 -128 -107 -150 -44 -12 -49 -11 -65 8 -15 19 -17 20
-20 4 -2 -10 0 -33 5 -52 13 -51 2 -80 -41 -98 -63 -26 -155 -3 -182 46 -9 17
0 25 80 71 50 28 98 63 108 77 34 50 66 74 126 92 79 25 83 25 96 2z m-767
-117 c12 -4 15 -14 10 -37 -7 -41 -4 -38 -44 -27 -50 15 -147 12 -214 -6 -65
-16 -185 -30 -185 -21 0 9 172 90 210 98 37 9 197 3 223 -7z m208 -29 c23 -20
50 -35 64 -35 22 0 24 -3 19 -29 -9 -44 51 -106 117 -120 72 -16 118 -13 166
8 57 26 79 62 66 105 -10 33 -10 34 36 54 69 31 88 35 126 22 42 -14 53 -45
31 -87 -23 -46 -61 -65 -138 -71 -54 -4 -69 -8 -73 -23 -3 -10 -35 -32 -71
-49 -35 -16 -64 -35 -64 -42 0 -6 -10 -2 -23 10 -12 11 -42 24 -66 28 -23 4
-55 17 -71 30 -19 17 -40 24 -69 24 -57 0 -100 20 -155 73 -40 38 -47 50 -44
78 3 29 7 34 48 44 25 7 49 13 54 14 5 0 26 -15 47 -34z"/>
<path d="M2664 3019 c-35 -10 -103 -79 -129 -130 -14 -26 -3 -18 45 34 34 37
79 76 99 87 39 21 34 23 -15 9z"/>
<path d="M2698 2583 c7 -3 16 -2 19 1 4 3 -2 6 -13 5 -11 0 -14 -3 -6 -6z"/>
<path d="M2655 2570 c-3 -6 1 -7 9 -4 18 7 21 14 7 14 -6 0 -13 -4 -16 -10z"/>
<path d="M3068 2519 c-10 -5 -22 -18 -27 -28 -9 -16 -4 -17 52 -13 75 5 89 15
49 36 -36 18 -50 19 -74 5z"/>
<path d="M2711 2490 c-13 -3 -30 -15 -38 -27 -14 -21 -14 -21 61 -20 l74 2
-20 22 c-23 25 -44 32 -77 23z"/>
<path d="M3033 2293 c11 -17 -3 -43 -23 -43 -9 0 -31 -7 -47 -15 -25 -12 -36
-13 -59 -4 -16 7 -39 11 -52 10 -15 0 -25 7 -31 20 -7 20 -10 18 -46 -25 -38
-47 -88 -76 -128 -76 -15 0 -18 -3 -10 -11 13 -13 41 -15 70 -5 19 6 25 2 35
-19 10 -22 13 -24 21 -10 7 13 11 14 25 3 13 -11 14 -11 7 1 -6 11 -4 13 7 9
40 -16 126 -18 176 -5 61 16 67 3 11 -26 -24 -13 -51 -17 -97 -15 -60 3 -61 2
-40 -14 33 -24 80 -30 124 -16 29 10 48 26 72 63 19 28 39 50 45 50 7 0 18 8
25 18 7 9 22 17 33 17 10 0 19 5 19 10 0 6 -10 10 -22 10 -12 0 -44 19 -72 42
-27 24 -47 37 -43 31z m47 -89 c0 -16 -11 -28 -43 -43 -35 -17 -62 -21 -143
-21 -67 0 -106 4 -118 13 -17 13 -17 15 3 47 19 31 24 34 62 31 23 -1 50 -8
60 -14 14 -9 31 -7 74 8 31 10 59 23 62 27 8 15 43 -23 43 -48z"/>
<path d="M1013 3143 c6 -105 5 -114 -7 -78 -14 44 -37 89 -61 120 -19 24 -28
14 -50 -59 -21 -69 -6 -123 55 -189 26 -29 52 -61 58 -72 10 -17 11 -15 12 20
0 23 9 66 20 98 11 31 20 76 20 101 0 44 -35 176 -47 176 -3 0 -3 -53 0 -117z"/>
<path d="M4002 3225 c-23 -70 -27 -186 -8 -241 9 -26 16 -67 16 -90 l0 -42 59
62 c33 34 65 74 70 89 18 48 13 104 -16 160 l-26 52 -25 -53 c-13 -30 -30 -88
-38 -130 l-14 -77 4 105 c3 58 1 128 -2 155 l-7 50 -13 -40z"/>
<path d="M2057 3182 c-10 -10 -17 -32 -17 -49 0 -26 12 -42 66 -90 l66 -59 27
25 c15 14 44 41 64 59 42 39 50 87 19 115 -24 22 -70 22 -93 1 -17 -15 -19
-15 -34 0 -22 22 -78 21 -98 -2z"/>
<path d="M3700 3161 l-24 -7 34 -37 c26 -28 51 -42 100 -56 36 -10 74 -22 85
-27 16 -6 18 -5 10 7 -6 8 -23 33 -39 56 -39 58 -101 82 -166 64z"/>
<path d="M1234 2966 c-77 -32 -102 -52 -145 -118 -21 -34 -38 -62 -37 -64 2
-1 34 7 73 19 83 26 134 71 153 136 8 23 12 44 10 45 -2 1 -26 -7 -54 -18z"/>
<path d="M3745 2957 c17 -79 65 -124 160 -152 33 -9 66 -22 74 -28 8 -7 -3 17
-25 52 -46 75 -82 106 -158 137 l-57 23 6 -32z"/>
<path d="M910 2832 c0 -31 11 -65 40 -119 l40 -76 0 39 c0 55 -15 102 -50 154
l-30 45 0 -43z"/>
<path d="M4094 2842 c-29 -37 -54 -114 -53 -165 l1 -42 11 30 c7 17 23 48 36
69 20 32 43 137 30 135 -2 0 -14 -12 -25 -27z"/>
<path d="M1385 2810 c-3 -5 -12 -32 -20 -58 -18 -59 -30 -70 -130 -125 -69
-37 -82 -49 -116 -106 -31 -51 -39 -74 -38 -110 0 -41 1 -43 10 -21 19 48 61
90 127 129 82 48 124 91 152 154 29 65 42 180 15 137z"/>
<path d="M3631 2782 c-2 -82 19 -133 74 -188 28 -29 74 -64 101 -78 78 -41
127 -92 137 -146 2 -15 5 -8 6 20 1 51 -30 126 -74 178 -15 18 -58 48 -95 67
-72 36 -116 80 -126 123 -3 15 -9 36 -14 47 -7 15 -9 10 -9 -23z"/>
<path d="M778 2770 c40 -25 68 -70 76 -124 5 -34 18 -52 63 -96 57 -56 93
-120 115 -207 6 -26 13 -42 15 -36 6 18 -76 263 -110 326 -31 59 -83 110 -144
141 -45 22 -55 20 -15 -4z"/>
<path d="M4194 2752 c-52 -38 -107 -100 -121 -137 -25 -64 -95 -306 -90 -311
2 -3 10 17 16 43 22 88 60 156 116 210 43 41 55 59 55 83 0 44 23 93 55 118
41 32 14 27 -31 -6z"/>
<path d="M1330 2760 c-8 -5 -40 -10 -70 -10 -83 -1 -129 -15 -166 -51 -40 -38
-57 -87 -52 -144 l3 -40 46 70 c61 92 81 109 160 135 37 11 75 27 85 35 21 16
17 20 -6 5z"/>
<path d="M3690 2757 c8 -8 45 -24 81 -36 76 -25 119 -61 177 -149 l37 -57 3
40 c5 57 -12 106 -50 141 -41 39 -85 54 -154 54 -29 0 -65 5 -81 11 -24 9 -26
8 -13 -4z"/>
<path d="M2333 2528 c-11 -13 -26 -33 -32 -45 -10 -20 -8 -24 21 -39 33 -17
33 -17 16 3 -23 26 -23 44 3 77 25 32 20 34 -8 4z"/>
<path d="M764 2402 c8 -34 41 -62 71 -62 13 0 31 -3 40 -7 16 -6 16 -4 0 21
-10 15 -41 38 -68 51 l-49 24 6 -27z"/>
<path d="M4214 2402 c-25 -9 -48 -27 -59 -44 l-17 -29 39 7 c54 9 72 21 79 50
4 14 5 26 3 28 -2 2 -23 -4 -45 -12z"/>
<path d="M1271 2368 c-24 -6 -31 -12 -22 -18 10 -6 8 -17 -12 -51 -13 -24 -33
-69 -43 -99 l-18 -55 -7 38 c-8 50 4 112 27 140 17 20 17 20 1 8 -56 -44 -69
-162 -28 -250 l25 -52 17 47 c10 26 21 68 24 93 13 105 16 113 62 162 49 52
45 58 -26 37z"/>
<path d="M3733 2331 c30 -32 47 -60 51 -82 15 -106 25 -158 38 -188 l13 -33
28 66 c30 74 33 116 12 161 l-15 30 3 -27 c2 -15 1 -44 -2 -65 l-7 -38 -18 55
c-10 30 -29 74 -43 98 -22 38 -22 42 -6 43 21 1 -53 27 -81 28 -14 1 -8 -10
27 -48z"/>
<path d="M1051 2274 c0 -11 3 -14 6 -6 3 7 2 16 -1 19 -3 4 -6 -2 -5 -13z"/>
<path d="M2352 2278 c-17 -17 -15 -58 4 -65 23 -8 64 14 64 35 0 22 -19 42
-40 42 -9 0 -21 -5 -28 -12z"/>
<path d="M780 2265 c0 -4 7 -20 16 -38 53 -102 125 -147 235 -147 47 0 70 -4
79 -15 22 -27 22 -9 0 34 -27 54 -92 117 -152 147 -36 18 -63 24 -113 24 -36
0 -65 -2 -65 -5z"/>
<path d="M4074 2250 c-59 -29 -129 -100 -160 -162 -25 -50 -25 -52 -5 -33 16
14 44 21 101 26 44 4 96 15 116 25 43 22 86 72 109 127 l15 37 -67 0 c-48 0
-80 -6 -109 -20z"/>
<path d="M2043 2234 c-26 -26 -26 -27 -8 -41 14 -9 33 -12 65 -7 25 4 46 8 48
9 6 5 -57 65 -67 65 -7 0 -24 -12 -38 -26z"/>
<path d="M2263 2173 c-22 -8 -14 -27 17 -45 25 -14 30 -23 30 -56 0 -47 -38
-92 -79 -93 -47 -1 8 -18 62 -18 40 -1 53 4 75 27 l27 27 -28 3 c-19 2 -31 11
-38 28 -13 37 -11 80 5 94 34 27 -22 53 -71 33z"/>
<path d="M1280 2079 c-32 -67 -32 -150 0 -233 l22 -59 31 53 c50 86 47 197 -7
264 l-22 28 -24 -53z"/>
<path d="M3698 2099 c-53 -69 -63 -147 -27 -214 12 -22 28 -53 37 -70 l16 -30
20 45 c29 62 28 196 0 259 l-20 45 -26 -35z"/>
<path d="M2098 2063 c7 -3 16 -2 19 1 4 3 -2 6 -13 5 -11 0 -14 -3 -6 -6z"/>
<path d="M2015 2050 c-13 -6 -15 -9 -5 -9 8 0 22 4 30 9 18 12 2 12 -25 0z"/>
<path d="M1968 2033 c7 -3 16 -2 19 1 4 3 -2 6 -13 5 -11 0 -14 -3 -6 -6z"/>
<path d="M1875 2015 l-30 -14 30 6 c17 3 41 10 55 14 l25 7 -25 1 c-14 0 -38
-6 -55 -14z"/>
<path d="M2020 2010 c-46 -25 -34 -25 21 0 24 11 37 19 29 19 -8 0 -31 -8 -50
-19z"/>
<path d="M917 1998 c-28 -10 -28 -11 -10 -30 25 -28 114 -71 199 -96 39 -12
83 -31 98 -43 l28 -22 -17 34 c-60 117 -128 169 -216 168 -30 0 -67 -5 -82
-11z"/>
<path d="M3939 1985 c-43 -22 -59 -42 -135 -160 l-19 -30 33 27 c18 15 59 35
90 44 77 22 177 68 212 97 l28 24 -37 12 c-60 17 -121 13 -172 -14z"/>
<path d="M1963 1929 c-29 -22 -53 -42 -53 -45 0 -3 17 7 38 23 20 16 48 37 62
46 13 9 20 17 15 17 -6 0 -34 -18 -62 -41z"/>
<path d="M2066 1955 c-11 -8 -15 -15 -9 -15 6 0 16 7 23 15 16 19 11 19 -14 0z"/>
<path d="M2004 1898 l-29 -33 33 29 c30 28 37 36 29 36 -2 0 -16 -15 -33 -32z"/>
<path d="M942 1795 c16 -17 117 -46 205 -59 108 -16 138 -34 177 -105 25 -47
24 -69 -3 -37 -19 23 -102 54 -166 61 -75 9 -123 33 -164 82 l-32 38 31 -52
c74 -124 184 -187 317 -182 58 3 75 0 108 -21 l40 -25 -45 57 c-25 31 -60 82
-78 113 -19 32 -51 67 -74 82 -35 24 -52 27 -167 33 -70 3 -133 10 -141 15 -8
4 -12 5 -8 0z"/>
<path d="M4067 1793 c-4 -3 -63 -9 -131 -13 -113 -6 -129 -9 -166 -34 -25 -16
-62 -59 -96 -109 -30 -45 -66 -98 -82 -117 l-27 -34 37 28 c34 25 45 28 130
30 79 1 102 6 150 29 58 28 126 95 155 152 15 28 13 27 -30 -12 -26 -24 -48
-43 -49 -43 -2 0 -41 -7 -87 -15 -54 -9 -103 -26 -138 -45 l-55 -31 28 51 c38
69 69 90 157 101 73 10 194 44 212 60 5 5 7 9 4 9 -3 0 -9 -3 -12 -7z"/>
<path d="M1808 1654 c6 -11 35 -48 66 -82 36 -40 56 -72 56 -87 0 -28 12 -32
30 -10 15 17 5 52 -24 84 -35 38 -139 116 -128 95z"/>
<path d="M1338 1385 c-3 -4 -39 -7 -79 -7 -58 0 -69 -2 -54 -11 11 -6 49 -33
85 -60 122 -94 180 -105 306 -62 66 23 78 24 150 14 94 -12 189 -20 154 -13
-126 26 -204 51 -287 91 -90 44 -105 48 -183 51 -47 2 -88 1 -92 -3z m255 -61
c42 -21 75 -40 73 -42 -2 -2 -31 4 -64 12 -35 10 -102 16 -163 16 -90 0 -109
3 -139 22 l-35 22 40 7 c22 4 79 6 126 5 78 -3 95 -7 162 -42z"/>
<path d="M3505 1376 c-22 -7 -78 -31 -125 -54 -76 -37 -198 -71 -262 -73 -13
0 -17 -3 -10 -6 7 -3 64 3 125 12 l113 17 75 -26 c42 -14 96 -26 120 -26 54 0
124 33 193 90 28 23 59 47 70 53 40 23 -231 34 -299 13z m215 -14 l45 -7 -29
-22 c-26 -21 -40 -23 -145 -23 -69 0 -138 -6 -171 -15 -30 -8 -55 -13 -57 -12
-7 8 113 69 149 76 53 11 148 12 208 3z"/>
</g>
</svg>
